{
	"asset":{
		"version":"2.0",
		"generator":"Created using the official Cinema 4D glTF Exporter 1.000x284978"
	},
	"buffers":[{
		"uri":"data:application/octet-stream;base64,",
		"byteLength":1320
	},
	{
		"uri":"data:application/octet-stream;base64,",
		"byteLength":1860
	},
	{
		"uri":"data:application/octet-stream;base64,",
		"byteLength":14388
	},
	{
		"uri":"data:application/octet-stream;base64,",
		"byteLength":8664
	},
	{
		"uri":"data:application/octet-stream;base64,",
		"byteLength":1488
	},
	{
		"uri":"data:application/octet-stream;base64,",
		"byteLength":1488
	},
	{
		"uri":"data:application/octet-stream;base64,",
		"byteLength":1488
	},
	{
		"uri":"data:application/octet-stream;base64,",
		"byteLength":13476
	},
	{
		"uri":"data:application/octet-stream;base64,",
		"byteLength":13476
	},
	{
		"uri":"data:application/octet-stream;base64,",
		"byteLength":13476
	}],
	"scenes":[{
		"nodes":[0,
		1,
		2,
		3,
		4,
		5,
		6,
		7,
		8,
		9]
	}],
	"accessors":[{
		"bufferView":0,
		"type":"SCALAR",
		"componentType":5123,
		"count":156,
		"max":[83],
		"byteOffset":0,
		"min":[0]
	},
	{
		"bufferView":1,
		"type":"VEC3",
		"componentType":5126,
		"count":84,
		"max":[0.4891185760498047,
		1.5206832885742188,
		0.15164947509765626],
		"byteOffset":0,
		"min":[-0.4891185760498047,
		-1.5206832885742188,
		-0.15164947509765626]
	},
	{
		"bufferView":2,
		"type":"SCALAR",
		"componentType":5123,
		"count":210,
		"max":[119],
		"byteOffset":0,
		"min":[0]
	},
	{
		"bufferView":3,
		"type":"VEC3",
		"componentType":5126,
		"count":120,
		"max":[2.0,
		2.0,
		39.0],
		"byteOffset":0,
		"min":[-2.0,
		-2.0,
		-39.0]
	},
	{
		"bufferView":4,
		"type":"SCALAR",
		"componentType":5123,
		"count":1434,
		"max":[959],
		"byteOffset":0,
		"min":[0]
	},
	{
		"bufferView":5,
		"type":"VEC3",
		"componentType":5126,
		"count":960,
		"max":[2.0208683013916017,
		1.9281997680664063,
		1.9034690856933594],
		"byteOffset":0,
		"min":[-2.0208683013916017,
		-1.9281997680664063,
		-1.9034690856933594]
	},
	{
		"bufferView":6,
		"type":"SCALAR",
		"componentType":5123,
		"count":1098,
		"max":[538],
		"byteOffset":0,
		"min":[0]
	},
	{
		"bufferView":7,
		"type":"VEC3",
		"componentType":5126,
		"count":539,
		"max":[6.235795974731445,
		2.941936492919922,
		2.294322967529297],
		"byteOffset":0,
		"min":[-6.235795974731445,
		-2.941936492919922,
		-2.294322967529297]
	},
	{
		"bufferView":8,
		"type":"SCALAR",
		"componentType":5123,
		"count":180,
		"max":[93],
		"byteOffset":0,
		"min":[0]
	},
	{
		"bufferView":9,
		"type":"VEC3",
		"componentType":5126,
		"count":94,
		"max":[0.9079456329345703,
		0.9617538452148438,
		1.0312042236328126],
		"byteOffset":0,
		"min":[-0.9079456329345703,
		-0.9617538452148438,
		-1.0312042236328126]
	},
	{
		"bufferView":10,
		"type":"SCALAR",
		"componentType":5123,
		"count":180,
		"max":[93],
		"byteOffset":0,
		"min":[0]
	},
	{
		"bufferView":11,
		"type":"VEC3",
		"componentType":5126,
		"count":94,
		"max":[0.8209037780761719,
		0.8231925964355469,
		0.6272354125976563],
		"byteOffset":0,
		"min":[-0.8209037780761719,
		-0.8231925964355469,
		-0.6272354125976563]
	},
	{
		"bufferView":12,
		"type":"SCALAR",
		"componentType":5123,
		"count":180,
		"max":[93],
		"byteOffset":0,
		"min":[0]
	},
	{
		"bufferView":13,
		"type":"VEC3",
		"componentType":5126,
		"count":94,
		"max":[0.9074954986572266,
		0.9648628234863281,
		1.0323143005371094],
		"byteOffset":0,
		"min":[-0.9074954986572266,
		-0.9648628234863281,
		-1.0323143005371094]
	},
	{
		"bufferView":14,
		"type":"SCALAR",
		"componentType":5123,
		"count":1194,
		"max":[923],
		"byteOffset":0,
		"min":[0]
	},
	{
		"bufferView":15,
		"type":"VEC3",
		"componentType":5126,
		"count":924,
		"max":[3.589916229248047,
		18.612590789794923,
		10.939870834350586],
		"byteOffset":0,
		"min":[-3.589916229248047,
		-18.612590789794923,
		-10.939870834350586]
	},
	{
		"bufferView":16,
		"type":"SCALAR",
		"componentType":5123,
		"count":1194,
		"max":[923],
		"byteOffset":0,
		"min":[0]
	},
	{
		"bufferView":17,
		"type":"VEC3",
		"componentType":5126,
		"count":924,
		"max":[0.7836284637451172,
		2.048503875732422,
		21.304588317871095],
		"byteOffset":0,
		"min":[-0.7836284637451172,
		-2.048503875732422,
		-21.304588317871095]
	},
	{
		"bufferView":18,
		"type":"SCALAR",
		"componentType":5123,
		"count":1194,
		"max":[923],
		"byteOffset":0,
		"min":[0]
	},
	{
		"bufferView":19,
		"type":"VEC3",
		"componentType":5126,
		"count":924,
		"max":[3.4199581146240236,
		18.300392150878908,
		11.39278793334961],
		"byteOffset":0,
		"min":[-3.4199581146240236,
		-18.300392150878908,
		-11.39278793334961]
	}],
	"nodes":[{
		"name":"Group91",
		"translation":[51.92072296142578,
		77.84835052490235,
		73.72439575195313],
		"rotation":[-0.7071067690849304,
		0.0,
		0.0,
		-0.7071067690849304],
		"scale":[1.0,
		1.0,
		1.0],
		"mesh":0
	},
	{
		"name":"TOWER1",
		"translation":[48.043724060058597,
		39.0,
		73.04158782958985],
		"rotation":[-0.7071067690849304,
		0.0,
		0.0,
		-0.7071067690849304],
		"scale":[1.0,
		1.0,
		1.0],
		"mesh":1
	},
	{
		"name":"hub03",
		"translation":[53.88594055175781,
		79.96556091308594,
		73.78250885009766],
		"rotation":[-0.7071067690849304,
		0.0,
		0.0,
		-0.7071067690849304],
		"scale":[1.0,
		1.0,
		1.0],
		"mesh":2
	},
	{
		"name":"Mesh382",
		"translation":[46.254844665527347,
		80.29432678222656,
		72.79656982421875],
		"rotation":[-0.7071067690849304,
		0.0,
		0.0,
		-0.7071067690849304],
		"scale":[1.0,
		1.0,
		1.0],
		"mesh":3
	},
	{
		"name":"socket_1_1",
		"translation":[53.421409606933597,
		79.1312255859375,
		72.45770263671875],
		"rotation":[-0.7071067690849304,
		0.0,
		0.0,
		-0.7071067690849304],
		"scale":[1.0,
		1.0,
		1.0],
		"mesh":4
	},
	{
		"name":"socket_1_2",
		"translation":[53.184242248535159,
		81.64720153808594,
		73.906005859375],
		"rotation":[-0.7071067690849304,
		0.0,
		0.0,
		-0.7071067690849304],
		"scale":[1.0,
		1.0,
		1.0],
		"mesh":5
	},
	{
		"name":"socket_1_3",
		"translation":[52.950706481933597,
		79.11824035644531,
		75.33210754394531],
		"rotation":[-0.7071067690849304,
		0.0,
		0.0,
		-0.7071067690849304],
		"scale":[1.0,
		1.0,
		1.0],
		"mesh":6
	},
	{
		"name":"Mesh373",
		"translation":[56.30117416381836,
		68.57102966308594,
		53.71889877319336],
		"rotation":[-0.7071067690849304,
		0.0,
		0.0,
		-0.7071067690849304],
		"scale":[1.0,
		1.0,
		1.0],
		"mesh":7
	},
	{
		"name":"Mesh376",
		"translation":[53.183326721191409,
		103.57178497314453,
		72.82020568847656],
		"rotation":[-0.7071067690849304,
		0.0,
		0.0,
		-0.7071067690849304],
		"scale":[1.0,
		1.0,
		1.0],
		"mesh":8
	},
	{
		"name":"Mesh379",
		"translation":[50.22687530517578,
		68.09678649902344,
		93.7503890991211],
		"rotation":[-0.7071067690849304,
		0.0,
		0.0,
		-0.7071067690849304],
		"scale":[1.0,
		1.0,
		1.0],
		"mesh":9
	}],
	"meshes":[{
		"name":"Group91",
		"primitives":[{
			"attributes":{
				"POSITION":1
			},
			"indices":0,
			"material":0
		}]
	},
	{
		"name":"TOWER1",
		"primitives":[{
			"attributes":{
				"POSITION":3
			},
			"indices":2,
			"material":0
		}]
	},
	{
		"name":"hub03",
		"primitives":[{
			"attributes":{
				"POSITION":5
			},
			"indices":4,
			"material":0
		}]
	},
	{
		"name":"Mesh382",
		"primitives":[{
			"attributes":{
				"POSITION":7
			},
			"indices":6,
			"material":0
		}]
	},
	{
		"name":"socket_1_1",
		"primitives":[{
			"attributes":{
				"POSITION":9
			},
			"indices":8,
			"material":0
		}]
	},
	{
		"name":"socket_1_2",
		"primitives":[{
			"attributes":{
				"POSITION":11
			},
			"indices":10,
			"material":0
		}]
	},
	{
		"name":"socket_1_3",
		"primitives":[{
			"attributes":{
				"POSITION":13
			},
			"indices":12,
			"material":0
		}]
	},
	{
		"name":"Mesh373",
		"primitives":[{
			"attributes":{
				"POSITION":15
			},
			"indices":14,
			"material":0
		}]
	},
	{
		"name":"Mesh376",
		"primitives":[{
			"attributes":{
				"POSITION":17
			},
			"indices":16,
			"material":0
		}]
	},
	{
		"name":"Mesh379",
		"primitives":[{
			"attributes":{
				"POSITION":19
			},
			"indices":18,
			"material":0
		}]
	}],
	"bufferViews":[{
		"buffer":0,
		"byteOffset":0,
		"byteLength":312,
		"target":34963
	},
	{
		"buffer":0,
		"byteOffset":312,
		"byteLength":1008,
		"target":34962
	},
	{
		"buffer":1,
		"byteOffset":0,
		"byteLength":420,
		"target":34963
	},
	{
		"buffer":1,
		"byteOffset":420,
		"byteLength":1440,
		"target":34962
	},
	{
		"buffer":2,
		"byteOffset":0,
		"byteLength":2868,
		"target":34963
	},
	{
		"buffer":2,
		"byteOffset":2868,
		"byteLength":11520,
		"target":34962
	},
	{
		"buffer":3,
		"byteOffset":0,
		"byteLength":2196,
		"target":34963
	},
	{
		"buffer":3,
		"byteOffset":2196,
		"byteLength":6468,
		"target":34962
	},
	{
		"buffer":4,
		"byteOffset":0,
		"byteLength":360,
		"target":34963
	},
	{
		"buffer":4,
		"byteOffset":360,
		"byteLength":1128,
		"target":34962
	},
	{
		"buffer":5,
		"byteOffset":0,
		"byteLength":360,
		"target":34963
	},
	{
		"buffer":5,
		"byteOffset":360,
		"byteLength":1128,
		"target":34962
	},
	{
		"buffer":6,
		"byteOffset":0,
		"byteLength":360,
		"target":34963
	},
	{
		"buffer":6,
		"byteOffset":360,
		"byteLength":1128,
		"target":34962
	},
	{
		"buffer":7,
		"byteOffset":0,
		"byteLength":2388,
		"target":34963
	},
	{
		"buffer":7,
		"byteOffset":2388,
		"byteLength":11088,
		"target":34962
	},
	{
		"buffer":8,
		"byteOffset":0,
		"byteLength":2388,
		"target":34963
	},
	{
		"buffer":8,
		"byteOffset":2388,
		"byteLength":11088,
		"target":34962
	},
	{
		"buffer":9,
		"byteOffset":0,
		"byteLength":2388,
		"target":34963
	},
	{
		"buffer":9,
		"byteOffset":2388,
		"byteLength":11088,
		"target":34962
	}],
	"materials":[{
		"pbrMetallicRoughness":{
			"baseColorFactor":[0.5879999995231628,
			0.5879999995231628,
			0.5879999995231628,
			1.0],
			"metallicFactor":1.0,
			"roughnessFactor":1.0
		},
		"emissiveFactor":[0.0,
		0.0,
		0.0],
		"alphaMode":"OPAQUE",
		"doubleSided":false,
		"name":"Material #597"
	}]
}